# xmcd
#
# Track frame offsets:
#	150
#	20473
#	39035
#	65413
#	87947
#	106808
#	135058
#	159487
#	173510
#	195925
#
# Disc length: 3059 seconds
# Revision: 0
# Processed by: cddbd v1.5.2PL0 Copyright (c) Steve Scherf et al.
# Submitted via: dBpowerAMP V12.0
#
DISCID=630bf10a
DTITLE=Steep Ravine - The Pedestrian
DYEAR=2015
DGENRE=Country
TTITLE0=Adeline
TTITLE1=Shadow of a Cloud
TTITLE2=Lonesome Daybreak
TTITLE3=Tom Foolery
TTITLE4=Grenadine
TTITLE5=The Red Moon Rose
TTITLE6=Daylight in a Jail Cell
TTITLE7=Suzanne
TTITLE8=Beachcomber Blues
TTITLE9=The Pedestrian
EXTD=
EXTT0=
EXTT1=
EXTT2=
EXTT3=
EXTT4=
EXTT5=
EXTT6=
EXTT7=
EXTT8=
EXTT9=
PLAYORDER=
